<?xml version="1.0" encoding="utf-8"?>
<!-- Generator: Adobe Illustrator 21.0.0, SVG Export Plug-In . SVG Version: 6.00 Build 0)  -->
<svg version="1.1" id="图层_1" xmlns="http://www.w3.org/2000/svg" xmlns:xlink="http://www.w3.org/1999/xlink" x="0px" y="0px"
	 viewBox="0 0 430 369" style="enable-background:new 0 0 430 369;" xml:space="preserve">
<style type="text/css">
	.st0{fill:#D8D8D8;}
	.st1{fill:#9C9C9C;}
	.st2{clip-path:url(#SVGID_2_);fill:#9C9C9C;}
	.st3{fill:#FFFFFF;}
	.st4{fill:#979797;}
	.st5{fill:#ECECEC;}
	.st6{fill:#A5A5A5;}
	.st7{fill:#BCBCBC;}
</style>
<g>
	<path class="st0" d="M367.5,317.6c0,17.1-71.6,30.9-160,30.9c-88.4,0-160-13.8-160-30.9c0-17.1,71.6-30.9,160-30.9
		S367.5,300.5,367.5,317.6"/>
	<path class="st1" d="M358.8,285.6c-1,0-1.7-0.8-1.7-1.8v-25.8c0-1,0.8-1.8,1.7-1.8c1,0,1.7,0.8,1.7,1.8v25.8
		C360.6,284.8,359.8,285.6,358.8,285.6"/>
	<g>
		<defs>
			<rect id="SVGID_1_" x="41" y="9" width="332.9" height="340"/>
		</defs>
		<clipPath id="SVGID_2_">
			<use xlink:href="#SVGID_1_"  style="overflow:visible;"/>
		</clipPath>
		<path class="st2" d="M344.6,272.3c0-1,0.8-1.8,1.7-1.8h25.4c1,0,1.7,0.8,1.7,1.8s-0.8,1.8-1.7,1.8h-25.4
			C345.4,274.1,344.6,273.3,344.6,272.3 M55.4,256.2c-1,0-1.7-0.8-1.7-1.8v-25.8c0-1,0.8-1.8,1.7-1.8c1,0,1.7,0.8,1.7,1.8v25.8
			C57.2,255.4,56.4,256.2,55.4,256.2"/>
		<path class="st2" d="M41,241.5c0-1,0.8-1.8,1.7-1.8h25.5c1,0,1.7,0.8,1.7,1.8c0,1-0.8,1.8-1.7,1.8H42.7
			C41.7,243.3,40.9,242.5,41,241.5"/>
	</g>
	<path class="st3" d="M298.8,10.5l11.5,21l21,11.5l-21,11.5l-11.5,21l-11.5-21l-21-11.5l21-11.5L298.8,10.5z M298.8,10.5"/>
	<path class="st1" d="M298.8,76.8l-12-21.9l-21.9-12l21.9-12l12-21.9l12,21.9l21.9,12l-21.9,12L298.8,76.8z M267.6,43l20.2,11
		l11,20.2l11-20.2L330,43l-20.2-11l-11-20.2l-11,20.2L267.6,43z M267.6,43"/>
	<path class="st3" d="M346.9,180l5.6,10.2l10.3,5.6l-10.3,5.6l-5.6,10.2l-5.6-10.2l-10.2-5.6l10.2-5.6L346.9,180z M346.9,180"/>
	<path class="st1" d="M346.9,213l-6.1-11.1l-11.1-6.1l11.1-6.1l6.1-11.1l6.1,11.1l11.1,6.1l-11.1,6.1L346.9,213z M332.4,195.9
		l9.4,5.1l5.1,9.4l5.1-9.4l0.2-0.1l9.2-5l-9.4-5.1l-5.1-9.4l-5.1,9.4l-0.2,0.1L332.4,195.9z M332.4,195.9"/>
	<path class="st3" d="M167.4,89.3l4.5,8.1l8.2,4.4l-8.2,4.4l-4.5,8.1l-4.5-8.1l-8.2-4.4l8.2-4.4L167.4,89.3z M167.4,89.3"/>
	<path class="st1" d="M167.4,115.5l-5-8.9l-9.1-4.9l9.1-4.9l5-8.9l5,8.9l9.1,4.9l-9.1,4.9L167.4,115.5L167.4,115.5z M156.1,101.7
		l7.3,3.9l4,7.2l4-7.2l7.3-3.9l-7.3-3.9l-4-7.2l-4,7.2L156.1,101.7z M156.1,101.7"/>
	<path class="st4" d="M173,173.1c-0.3,0-0.5-0.1-0.6-0.3c-0.1-0.2-0.2-0.5-0.1-0.7c3.5-8,11.2-14.1,11.5-14.4
		c0.3-0.3,0.8-0.2,1.1,0.1c0.3,0.3,0.2,0.8-0.1,1.1c-0.1,0.1-7.7,6.2-11.1,13.8C173.6,172.9,173.3,173.1,173,173.1L173,173.1z
		 M173,173.1"/>
	<path class="st4" d="M187,168.1c-0.3,0-0.5-0.1-0.7-0.4c-4-6.5-11.3-5-11.4-4.9c-0.4,0.1-0.8-0.2-0.9-0.6c-0.1-0.4,0.1-0.8,0.5-0.9
		c0.1,0,8.4-1.8,13,5.6c0.1,0.2,0.2,0.5,0,0.8C187.5,167.9,187.2,168.1,187,168.1L187,168.1z M238.9,167.1c-0.3,0-0.6-0.2-0.7-0.4
		c-0.1-0.3-0.1-0.6,0.1-0.8c0.2-0.2,4.7-5.6,13.7-4.7c0.4,0,0.7,0.4,0.7,0.8c0,0.4-0.4,0.7-0.8,0.7c-8.2-0.8-12.3,4.1-12.4,4.1
		C239.3,167,239.1,167.1,238.9,167.1L238.9,167.1z M238.9,167.1"/>
	<path class="st4" d="M253.8,174c-0.4,0-0.7-0.2-0.7-0.6c-1.7-6.7-11-14.5-11-14.6c-0.3-0.3-0.4-0.8-0.1-1.1
		c0.3-0.3,0.8-0.4,1.1-0.1c0.4,0.3,9.8,8.2,11.6,15.4c0.1,0.2,0,0.5-0.1,0.7C254.2,173.9,254,174,253.8,174L253.8,174z M186.5,205.9
		c-0.2,0-0.3-0.1-0.5-0.2c-4.7-4.7-5.1-11.9-5.1-12.2c0-0.4,0.3-0.7,0.6-0.7c0.2,0,0.3,0,0.5,0.2c0.1,0.1,0.2,0.3,0.2,0.4
		c0,0.1,0.4,7,4.8,11.4c0.2,0.2,0.2,0.5,0.1,0.7C187,205.7,186.8,205.9,186.5,205.9L186.5,205.9z M189,199.1c-0.4,0-0.7-0.3-0.7-0.6
		c-0.1-0.4,0.1-0.7,0.4-0.9c0.2-0.1,22.7-9.6,50.7-2.7c0.2,0,0.4,0.2,0.5,0.3c0.1,0.2,0.1,0.4,0.1,0.6c0,0.2-0.2,0.4-0.3,0.5
		c-0.2,0.1-0.4,0.1-0.6,0.1c-27.6-6.8-49.5,2.5-49.8,2.6C189.2,199.1,189.1,199.1,189,199.1L189,199.1z M189,199.1"/>
	<path class="st5" d="M220.2,193.8c0,0-1.9,13.4,3.5,17.9c5.5,4.5,13.9-0.7,15.7-15.3L220.2,193.8z M220.2,193.8"/>
	<path class="st4" d="M227.9,214c-1.6,0-3.2-0.6-4.6-1.7c-5.7-4.7-3.8-17.9-3.8-18.5l0.1-0.6l20.5,2.8l-0.1,0.6
		C239,204.9,234.8,214,227.9,214L227.9,214z M220.8,194.5c-0.3,2.7-1.1,13,3.4,16.7c1.1,1,2.4,1.4,3.8,1.4c4.2,0,9.3-4.9,10.8-15.7
		L220.8,194.5z M220.8,194.5"/>
	<path class="st3" d="M301.1,118.1H128.2c-12.4,0-22.4,9.8-22.4,21.9v106.1c0,12,10,21.9,22.4,21.9h57.6v15l-20.7,17.3
		c-1.5,1.3-2.1,3.3-1.4,5.2c0.7,1.8,2.5,3.1,4.5,3.1h92.8c2,0,3.8-1.2,4.5-3.1c0.7-1.8,0.1-3.9-1.4-5.2L243.5,283v-15h57.6
		c12.4,0,22.4-9.8,22.4-21.9V140C323.5,127.9,313.4,118.1,301.1,118.1L301.1,118.1z M248.1,299.2h-66.9l12.6-10.5
		c0.6-0.5,1.1-1.2,1.4-2h39c0.3,0.8,0.8,1.5,1.4,2L248.1,299.2z M195.5,283.5v-15.6h38.4v15.6H195.5z M313.9,246.1
		c0,6.9-5.7,12.5-12.8,12.5H128.2c-7.1,0-12.8-5.6-12.8-12.5v-12.5h198.4V246.1z M313.9,230.5H115.4V140c0-6.9,5.7-12.5,12.8-12.5
		h172.8c7.1,0,12.8,5.6,12.8,12.5V230.5z M214.7,252.3c3.5,0,6.4-2.8,6.4-6.2c0-3.4-2.9-6.2-6.4-6.2c-3.5,0-6.4,2.8-6.4,6.2
		C208.3,249.5,211.1,252.3,214.7,252.3L214.7,252.3z M214.7,243c1.8,0,3.2,1.4,3.2,3.1c0,1.7-1.4,3.1-3.2,3.1
		c-1.8,0-3.2-1.4-3.2-3.1C211.5,244.4,212.9,243,214.7,243L214.7,243z M214.7,243"/>
	<path class="st6" d="M261.1,309.2h-92.8c-2.3,0-4.3-1.4-5.1-3.5c-0.8-2.1-0.2-4.5,1.6-5.9l20.5-17.1v-14.1h-57
		c-12.7,0-23-10.1-23-22.5V140c0-12.4,10.3-22.5,23-22.5h172.8c12.7,0,23,10.1,23,22.5v106.1c0,12.4-10.3,22.5-23,22.5h-57v14.1
		l20.5,17.1c1.7,1.4,2.4,3.8,1.6,5.9C265.4,307.8,263.3,309.2,261.1,309.2L261.1,309.2z M128.2,118.7c-12,0-21.8,9.5-21.8,21.2
		v106.1c0,11.7,9.8,21.2,21.8,21.2h58.2v16l-21,17.5c-1.3,1.1-1.8,2.9-1.2,4.5c0.6,1.6,2.2,2.6,3.9,2.6h92.8c1.7,0,3.3-1.1,3.9-2.6
		c0.6-1.6,0.1-3.4-1.2-4.5l-21-17.5v-16h58.2c12,0,21.8-9.5,21.8-21.2V140c0-11.7-9.8-21.2-21.8-21.2H128.2z M249.8,299.8h-70.4
		l13.9-11.6c0.5-0.5,0.9-1,1.2-1.7l0.2-0.4h39.9l0.2,0.4c0.3,0.7,0.7,1.3,1.2,1.7L249.8,299.8z M183,298.5h63.3l-11.2-9.4
		c-0.6-0.5-1.1-1.1-1.4-1.8h-38.1c-0.3,0.7-0.8,1.3-1.4,1.8L183,298.5z M234.5,284.2h-39.7v-16.9h39.7V284.2z M196.1,282.9h37.1
		v-14.3h-37.1V282.9z M301.1,259.2H128.2c-7.4,0-13.4-5.9-13.4-13.1V233h199.7v13.1C314.5,253.3,308.5,259.2,301.1,259.2
		L301.1,259.2z M116.1,234.2v11.8c0,6.5,5.5,11.8,12.2,11.8h172.8c6.7,0,12.2-5.3,12.2-11.8v-11.8H116.1z M214.7,253
		c-3.9,0-7-3.1-7-6.9c0-3.8,3.2-6.9,7-6.9c3.9,0,7,3.1,7,6.9S218.5,253,214.7,253L214.7,253z M214.7,240.5c-3.2,0-5.8,2.5-5.8,5.6
		c0,3.1,2.6,5.6,5.8,5.6c3.2,0,5.8-2.5,5.8-5.6C220.4,243,217.8,240.5,214.7,240.5L214.7,240.5z M214.7,249.8
		c-2.1,0-3.8-1.7-3.8-3.8c0-2.1,1.7-3.8,3.8-3.8c2.1,0,3.8,1.7,3.8,3.8C218.5,248.2,216.8,249.8,214.7,249.8L214.7,249.8z
		 M214.7,243.6c-1.4,0-2.6,1.1-2.6,2.5c0,1.4,1.1,2.5,2.6,2.5c1.4,0,2.6-1.1,2.6-2.5C217.2,244.7,216.1,243.6,214.7,243.6
		L214.7,243.6z M314.5,231.1H114.8V140c0-7.2,6-13.1,13.4-13.1h172.8c7.4,0,13.4,5.9,13.4,13.1V231.1z M116.1,229.8h197.1V140
		c0-6.5-5.5-11.8-12.2-11.8H128.2c-6.7,0-12.2,5.3-12.2,11.8V229.8z M116.1,229.8"/>
	<path class="st3" d="M127.5,327.3l-27.5,8.1L96.4,323l17.9-40.7l13.1-3.9l9.8,33.4l6.8-2l3.4,11.7l-6.8,2l3,10.1l-13.1,3.9
		L127.5,327.3z M124.1,315.6l-5-17.1l-9.5,21.4L124.1,315.6z M124.1,315.6"/>
	<path class="st7" d="M130,338.3l-3-10.1l-27.5,8.1l-3.9-13.2l0.1-0.2l18-41l14-4.1l9.8,33.4l6.8-2l3.8,12.9l-6.8,2l3,10.2
		L130,338.3z M127.9,326.5l3,10.1l11.9-3.5l-3-10.1l6.8-2l-3.1-10.5l-6.8,2l-9.8-33.4l-12.3,3.6L97,323l3.4,11.6L127.9,326.5z
		 M108.4,320.9l10.8-24.2l5.7,19.4L108.4,320.9z M118.9,300.4l-8.2,18.5l12.6-3.7L118.9,300.4z M118.9,300.4"/>
	<path class="st3" d="M215.9,331.1l-25.8-12.5l5.7-11.6l40.7-18.1l12.3,6l-15.2,31.3l6.4,3.1l-5.3,11l-6.4-3.1l-4.6,9.5l-12.3-6
		L215.9,331.1z M221.2,320.1l7.8-16l-21.4,9.4L221.2,320.1z M221.2,320.1"/>
	<path class="st7" d="M223.9,347.4l-13.5-6.6l4.6-9.5l-25.8-12.5l6-12.4l41.1-18.3l13.2,6.4l-15.2,31.3l6.4,3.1l-5.9,12.1l-6.4-3.1
		L223.9,347.4z M212.1,340.3l11.2,5.4l4.6-9.5l6.4,3.1l4.8-9.8l-6.4-3.1l15.2-31.3l-11.5-5.6l-40.2,17.9l-5.3,10.8l25.8,12.5
		L212.1,340.3z M221.5,320.9l-15.4-7.5l24.3-10.6L221.5,320.9z M209.1,313.5l11.8,5.7l6.8-13.9L209.1,313.5z M209.1,313.5"/>
	<path class="st3" d="M144.4,312.1c-0.6-10.7,1-18.4,4.6-22.9c3.6-4.5,9.4-6.9,17.3-7.4c3.8-0.2,6.9,0.1,9.4,0.9
		c2.5,0.8,4.5,1.9,6.2,3.4c1.6,1.4,2.9,2.9,3.9,4.6c1,1.6,1.8,3.5,2.4,5.7c1.3,4.2,2,8.5,2.3,13.1c0.5,10.3-0.8,17.8-4,22.8
		c-3.2,4.9-9.1,7.6-17.6,8.1c-4.8,0.2-8.6-0.3-11.6-1.7c-3-1.4-5.5-3.5-7.6-6.3c-1.5-2-2.7-4.8-3.6-8.4
		C145.2,320.5,144.6,316.5,144.4,312.1L144.4,312.1z M159.9,311.4c0.4,7.2,1.3,12.1,2.7,14.6c1.4,2.6,3.3,3.8,5.7,3.7
		c1.6-0.1,2.9-0.7,4.1-1.9c1.1-1.2,1.9-3,2.3-5.4c0.4-2.4,0.5-6.2,0.2-11.3c-0.4-7.5-1.3-12.5-2.7-15c-1.4-2.5-3.4-3.7-5.9-3.6
		c-2.6,0.1-4.4,1.5-5.4,4.2C159.9,299.3,159.6,304.2,159.9,311.4L159.9,311.4z M159.9,311.4"/>
	<path class="st7" d="M166.8,341.1c-3.9,0-7.2-0.6-9.8-1.8c-3.1-1.4-5.7-3.6-7.8-6.5c-1.5-2.1-2.8-4.9-3.7-8.6
		c-1-3.6-1.5-7.6-1.8-12c-0.6-10.9,1-18.7,4.8-23.3c3.7-4.6,9.7-7.2,17.8-7.6c3.9-0.2,7.1,0.1,9.7,1c2.6,0.8,4.7,2,6.4,3.5
		c1.7,1.5,3,3,4,4.7c1,1.6,1.8,3.6,2.5,5.8c1.3,4.2,2,8.6,2.3,13.3c0.5,10.3-0.9,18.1-4.1,23.2c-3.3,5.1-9.4,7.9-18.1,8.3
		C168.3,341.1,167.5,341.1,166.8,341.1L166.8,341.1z M168.5,282.5c-0.7,0-1.4,0-2.1,0.1c-7.7,0.4-13.4,2.8-16.9,7.1
		c-3.5,4.3-5,11.9-4.5,22.4c0.2,4.3,0.8,8.3,1.7,11.8c0.9,3.5,2.1,6.2,3.5,8.2c2,2.7,4.4,4.8,7.3,6.1c2.9,1.3,6.7,1.9,11.3,1.6
		c8.2-0.4,14-3,17.1-7.8c3.1-4.8,4.5-12.3,3.9-22.4c-0.2-4.5-1-8.9-2.2-12.9c-0.6-2.1-1.4-4-2.4-5.6c-0.9-1.6-2.2-3-3.8-4.4
		c-1.5-1.4-3.5-2.4-5.9-3.2C173.7,282.8,171.3,282.5,168.5,282.5L168.5,282.5z M168,330.3c-2.5,0-4.5-1.3-6-4
		c-1.5-2.7-2.4-7.6-2.7-14.9c-0.4-7.3,0-12.2,1-15c1.1-2.9,3.1-4.5,6-4.7c2.8-0.2,5,1.2,6.5,3.9c1.5,2.6,2.4,7.6,2.8,15.3
		c0.3,5.1,0.2,9-0.3,11.5c-0.4,2.6-1.3,4.5-2.5,5.8c-1.2,1.3-2.7,2-4.5,2.1C168.3,330.3,168.1,330.3,168,330.3L168,330.3z
		 M166.7,293c-0.1,0-0.2,0-0.3,0c-2.3,0.1-3.9,1.4-4.9,3.8c-1,2.6-1.3,7.5-0.9,14.5c0.4,7.1,1.2,11.9,2.6,14.4
		c1.3,2.4,3,3.4,5.1,3.3c1.4-0.1,2.6-0.6,3.6-1.7c1-1.1,1.7-2.8,2.1-5.1c0.4-2.4,0.5-6.2,0.2-11.2c-0.4-7.4-1.3-12.3-2.6-14.8
		C170.5,294.1,168.9,293,166.7,293L166.7,293z M166.7,293"/>
</g>
</svg>
